<svg xmlns="http://www.w3.org/2000/svg" xmlns:xlink="http://www.w3.org/1999/xlink" width="500" zoomAndPan="magnify" viewBox="0 0 375 374.999991" height="500" preserveAspectRatio="xMidYMid meet" version="1.2"><defs/><g id="d7487115ce"><g style="fill:#000000;fill-opacity:1;"><g transform="translate(53.939518, 296.115394)"><path style="stroke:none" d="M 42 -174.65625 C 34.925781 -174.65625 29.175781 -176.800781 24.75 -181.09375 C 20.320312 -185.382812 18.109375 -190.925781 18.109375 -197.71875 C 18.109375 -204.40625 20.320312 -209.894531 24.75 -214.1875 C 29.175781 -218.476562 34.925781 -220.625 42 -220.625 C 46.71875 -220.625 50.914062 -219.632812 54.59375 -217.65625 C 58.269531 -215.675781 61.117188 -212.960938 63.140625 -209.515625 C 65.171875 -206.078125 66.1875 -202.144531 66.1875 -197.71875 C 66.1875 -193.28125 65.171875 -189.316406 63.140625 -185.828125 C 61.117188 -182.335938 58.269531 -179.601562 54.59375 -177.625 C 50.914062 -175.644531 46.71875 -174.65625 42 -174.65625 Z M 22.484375 0 L 22.484375 -156 L 61.65625 -156 L 61.65625 0 Z M 22.484375 0 "/></g><g transform="translate(137.946743, 296.115394)"><path style="stroke:none" d="M 22.484375 0 L 22.484375 -156 L 60.109375 -156 L 60.109375 -133.078125 L 63.078125 -132.375 C 72.785156 -150.101562 88.53125 -158.96875 110.3125 -158.96875 C 128.320312 -158.96875 141.546875 -154.0625 149.984375 -144.25 C 158.421875 -134.445312 162.640625 -120.164062 162.640625 -101.40625 L 162.640625 0 L 123.46875 0 L 123.46875 -96.59375 C 123.46875 -106.96875 121.390625 -114.441406 117.234375 -119.015625 C 113.085938 -123.585938 106.441406 -125.875 97.296875 -125.875 C 86.078125 -125.875 77.332031 -122.242188 71.0625 -114.984375 C 64.789062 -107.722656 61.65625 -96.3125 61.65625 -80.75 L 61.65625 0 Z M 22.484375 0 "/></g></g></g></svg>