<svg xmlns="http://www.w3.org/2000/svg" xmlns:xlink="http://www.w3.org/1999/xlink" width="500" zoomAndPan="magnify" viewBox="0 0 375 374.999991" height="500" preserveAspectRatio="xMidYMid meet" version="1.2"><defs/><g id="42c0c95a09"><g style="fill:#000000;fill-opacity:1;"><g transform="translate(17.101806, 302.62498)"><path style="stroke:none" d="M 23.171875 0 L 23.171875 -160.75 L 61.9375 -160.75 L 61.9375 -137.140625 L 65 -136.40625 C 75.007812 -154.675781 91.234375 -163.8125 113.671875 -163.8125 C 132.234375 -163.8125 145.859375 -158.757812 154.546875 -148.65625 C 163.242188 -138.550781 167.59375 -123.832031 167.59375 -104.5 L 167.59375 0 L 127.234375 0 L 127.234375 -99.53125 C 127.234375 -110.21875 125.09375 -117.914062 120.8125 -122.625 C 116.539062 -127.34375 109.691406 -129.703125 100.265625 -129.703125 C 88.703125 -129.703125 79.691406 -125.960938 73.234375 -118.484375 C 66.773438 -111.003906 63.546875 -99.25 63.546875 -83.21875 L 63.546875 0 Z M 23.171875 0 "/></g></g><g style="fill:#000000;fill-opacity:1;"><g transform="translate(169.577448, 302.62498)"><path style="stroke:none" d="M 23.171875 0 L 23.171875 -160.75 L 61.9375 -160.75 L 61.9375 -137.140625 L 65 -136.40625 C 75.007812 -154.675781 91.234375 -163.8125 113.671875 -163.8125 C 132.234375 -163.8125 145.859375 -158.757812 154.546875 -148.65625 C 163.242188 -138.550781 167.59375 -123.832031 167.59375 -104.5 L 167.59375 0 L 127.234375 0 L 127.234375 -99.53125 C 127.234375 -110.21875 125.09375 -117.914062 120.8125 -122.625 C 116.539062 -127.34375 109.691406 -129.703125 100.265625 -129.703125 C 88.703125 -129.703125 79.691406 -125.960938 73.234375 -118.484375 C 66.773438 -111.003906 63.546875 -99.25 63.546875 -83.21875 L 63.546875 0 Z M 23.171875 0 "/></g></g></g></svg>